<svg width="44" height="44" viewBox="0 0 44 44" fill="none" xmlns="http://www.w3.org/2000/svg">
<path fill-rule="evenodd" clip-rule="evenodd" d="M11.5238 1.54761C6.0141 1.54761 1.54761 6.0141 1.54761 11.5238V32.4762C1.54761 37.9859 6.0141 42.4524 11.5238 42.4524H32.4762C37.9859 42.4524 42.4524 37.9859 42.4524 32.4762V11.5238C42.4524 6.0141 37.9859 1.54761 32.4762 1.54761H11.5238ZM0.547607 11.5238C0.547607 5.46182 5.46182 0.547607 11.5238 0.547607H32.4762C38.5382 0.547607 43.4524 5.46182 43.4524 11.5238V32.4762C43.4524 38.5382 38.5382 43.4524 32.4762 43.4524H11.5238C5.46182 43.4524 0.547607 38.5382 0.547607 32.4762V11.5238ZM23.2466 14.1132C21.6069 13.8701 19.9323 14.1502 18.4609 14.9136C16.9895 15.6771 15.7964 16.8851 15.0511 18.3657C14.3058 19.8464 14.0464 21.5244 14.3098 23.161C14.5731 24.7976 15.3458 26.3095 16.518 27.4816C17.6901 28.6538 19.202 29.4265 20.8386 29.6898C22.4752 29.9532 24.1532 29.6937 25.6338 28.9485C27.1145 28.2032 28.3225 27.01 29.086 25.5387C29.8494 24.0673 30.1295 22.3927 29.8863 20.7529C29.6383 19.0804 28.8589 17.5319 27.6633 16.3363C26.4677 15.1406 24.9192 14.3613 23.2466 14.1132ZM18.0003 14.026C19.6584 13.1657 21.5455 12.85 23.3933 13.1241C25.2781 13.4035 27.0231 14.2818 28.3704 15.6292C29.7178 16.9765 30.596 18.7214 30.8755 20.6063C31.1495 22.454 30.8339 24.3412 29.9736 25.9992C29.1132 27.6573 27.752 29.0019 26.0834 29.8417C24.4149 30.6815 22.524 30.9739 20.6797 30.6771C18.8355 30.3803 17.1317 29.5096 15.8109 28.1887C14.49 26.8679 13.6192 25.1641 13.3225 23.3199C13.0257 21.4756 13.318 19.5847 14.1579 17.9162C14.9977 16.2476 16.3423 14.8863 18.0003 14.026ZM33.5238 9.97618C33.2477 9.97618 33.0238 10.2 33.0238 10.4762C33.0238 10.7523 33.2477 10.9762 33.5238 10.9762H33.5438C33.8199 10.9762 34.0438 10.7523 34.0438 10.4762C34.0438 10.2 33.8199 9.97618 33.5438 9.97618H33.5238Z" fill="white"/>
</svg>
