<svg width="48" height="48" viewBox="0 0 48 48" fill="none" xmlns="http://www.w3.org/2000/svg">
<path d="M32 44.0001V36.2601C32.075 35.3064 31.9462 34.3477 31.622 33.4477C31.2979 32.5477 30.7859 31.727 30.12 31.0401C36.4 30.3401 43 27.9601 43 17.0401C42.9995 14.2478 41.9254 11.5625 40 9.54012C40.9117 7.09713 40.8472 4.39682 39.82 2.00012C39.82 2.00012 37.46 1.30012 32 4.96012C27.416 3.71776 22.584 3.71776 18 4.96012C12.54 1.30012 10.18 2.00012 10.18 2.00012C9.15275 4.39682 9.08829 7.09713 10 9.54012C8.06025 11.5775 6.98505 14.287 7 17.1001C7 27.9401 13.6 30.3201 19.88 31.1001C19.222 31.7801 18.7145 32.5909 18.3906 33.48C18.0667 34.369 17.9336 35.3163 18 36.2601V44.0001M18 38.0001C8 41.0001 8 33.0001 4 32.0001L18 38.0001Z" stroke="white" stroke-linecap="round" stroke-linejoin="round"/>
</svg>
