<svg width="48" height="48" viewBox="0 0 48 48" fill="none" xmlns="http://www.w3.org/2000/svg">
<path d="M45.3001 28.7799L24 44.2599L2.70004 28.7799C2.41449 28.5699 2.20268 28.275 2.09491 27.9373C1.98714 27.5996 1.98894 27.2365 2.10004 26.8999L4.54004 19.3399L9.42005 4.31992C9.46738 4.19754 9.54272 4.08794 9.64005 3.99992C9.79852 3.85517 10.0054 3.7749 10.22 3.7749C10.4347 3.7749 10.6416 3.85517 10.8 3.99992C10.9028 4.09925 10.9785 4.22316 11.02 4.35992L15.9 19.3399H32.1L36.98 4.31992C37.0274 4.19754 37.1027 4.08794 37.2001 3.99992C37.3585 3.85517 37.5654 3.7749 37.78 3.7749C37.9947 3.7749 38.2016 3.85517 38.3601 3.99992C38.4628 4.09925 38.5385 4.22316 38.5801 4.35992L43.46 19.3799L46.0001 26.8999C46.1011 27.2469 46.0876 27.6172 45.9615 27.9559C45.8354 28.2945 45.6034 28.5835 45.3001 28.7799V28.7799Z" stroke="white" stroke-linecap="round" stroke-linejoin="round"/>
</svg>
