<svg width="73" height="72" viewBox="0 0 73 72" fill="none" xmlns="http://www.w3.org/2000/svg">
<circle opacity="0.1" cx="36.5" cy="36" r="36" fill="#00CC99"/>
<path d="M28.6092 40V30.13H34.9932V31.306H30.0092V34.4H34.6992V35.576H30.0092V38.824H34.9932V40H28.6092ZM41.25 40.126C40.2513 40.126 39.3973 39.9207 38.688 39.51C37.9786 39.0993 37.4326 38.516 37.05 37.76C36.6766 36.9947 36.49 36.094 36.49 35.058C36.49 34.022 36.6766 33.126 37.05 32.37C37.4326 31.614 37.9786 31.0307 38.688 30.62C39.3973 30.2093 40.2513 30.004 41.25 30.004C41.922 30.004 42.5473 30.1113 43.126 30.326C43.714 30.5313 44.204 30.83 44.596 31.222L44.092 32.384C43.6626 32.0013 43.2193 31.726 42.762 31.558C42.314 31.3807 41.824 31.292 41.292 31.292C40.228 31.292 39.416 31.6187 38.856 32.272C38.296 32.9253 38.016 33.854 38.016 35.058C38.016 36.262 38.296 37.1953 38.856 37.858C39.416 38.5113 40.228 38.838 41.292 38.838C41.824 38.838 42.314 38.754 42.762 38.586C43.2193 38.4087 43.6626 38.1287 44.092 37.746L44.596 38.908C44.204 39.2907 43.714 39.5893 43.126 39.804C42.5473 40.0187 41.922 40.126 41.25 40.126Z" fill="#00CC99"/>
</svg>
